<svg xmlns="http://www.w3.org/2000/svg" xmlns:xlink="http://www.w3.org/1999/xlink" width="500" zoomAndPan="magnify" viewBox="0 0 375 374.999991" height="500" preserveAspectRatio="xMidYMid meet" version="1.0"><defs><g/><clipPath id="e858822a9f"><path d="M 291.675781 192 L 311 192 L 311 202 L 291.675781 202 Z M 291.675781 192 " clip-rule="nonzero"/></clipPath><clipPath id="a32820d802"><path d="M 310 154 L 367.425781 154 L 367.425781 220.222656 L 310 220.222656 Z M 310 154 " clip-rule="nonzero"/></clipPath><clipPath id="5198be6a9e"><path d="M 344 145.972656 L 361 145.972656 L 361 162 L 344 162 Z M 344 145.972656 " clip-rule="nonzero"/></clipPath></defs><g clip-path="url(#e858822a9f)"><path fill="#399b53" d="M 295.789062 192.085938 L 291.710938 198.730469 C 299.3125 197.527344 305.5 198.558594 310.257812 201.824219 C 306.800781 197.234375 301.976562 193.984375 295.78125 192.085938 Z M 295.789062 192.085938 " fill-opacity="1" fill-rule="evenodd"/></g><path fill="#000000" d="M 292.429688 188.605469 C 301.273438 189.792969 308.136719 194.140625 313.019531 201.632812 C 311.796875 194.066406 307.964844 188.039062 301.507812 183.539062 Z M 292.429688 188.605469 " fill-opacity="1" fill-rule="evenodd"/><path fill="#399b53" d="M 296.902344 176.167969 C 308.964844 183.945312 315.496094 194.652344 316.507812 208.269531 C 318.523438 197.527344 315.515625 187.902344 307.496094 179.394531 C 314.214844 177.464844 319.390625 172.902344 323.019531 165.710938 C 334.992188 186.566406 331.179688 203.230469 311.578125 215.707031 C 336.40625 207.105469 340.132812 180.878906 322.761719 157.554688 C 318.890625 170.511719 310.277344 176.71875 296.910156 176.167969 Z M 296.902344 176.167969 " fill-opacity="1" fill-rule="evenodd"/><g clip-path="url(#a32820d802)"><path fill="#000000" d="M 326.644531 154.664062 C 347.324219 180.835938 340.75 210.480469 310.855469 220.316406 C 342.199219 218.503906 360.988281 198.484375 367.234375 160.253906 C 358.992188 171.429688 345.457031 169.570312 326.644531 154.664062 Z M 326.644531 154.664062 " fill-opacity="1" fill-rule="evenodd"/></g><g clip-path="url(#5198be6a9e)"><path fill="#000000" d="M 352.496094 161.101562 C 356.660156 161.101562 360.0625 157.707031 360.0625 153.535156 C 360.0625 149.371094 356.667969 145.96875 352.496094 145.96875 C 348.328125 145.96875 344.929688 149.363281 344.929688 153.535156 C 344.929688 157.699219 348.328125 161.101562 352.496094 161.101562 Z M 352.496094 161.101562 " fill-opacity="1" fill-rule="evenodd"/></g><path fill="#399b53" d="M 323.253906 185.585938 C 323.5 186.015625 323.371094 186.441406 322.855469 186.855469 L 321.886719 185.171875 C 322.28125 185.105469 322.582031 185.105469 322.78125 185.167969 C 322.976562 185.234375 323.136719 185.371094 323.261719 185.578125 Z M 319.550781 183.742188 C 319.152344 183.8125 318.859375 183.8125 318.667969 183.742188 C 318.480469 183.667969 318.332031 183.546875 318.226562 183.359375 C 318.113281 183.171875 318.085938 182.96875 318.140625 182.757812 C 318.195312 182.546875 318.347656 182.339844 318.621094 182.128906 L 319.558594 183.75 Z M 324.957031 184.484375 C 324.566406 183.8125 324.050781 183.390625 323.402344 183.226562 C 322.753906 183.058594 321.90625 183.113281 320.851562 183.390625 L 319.804688 181.582031 C 320.09375 181.492188 320.402344 181.445312 320.722656 181.425781 C 321.042969 181.40625 321.367188 181.40625 321.703125 181.433594 L 321.695312 179.566406 C 321.234375 179.523438 320.777344 179.535156 320.328125 179.597656 C 319.878906 179.65625 319.421875 179.78125 318.945312 179.964844 L 318.535156 179.246094 L 317.285156 179.964844 L 317.683594 180.664062 C 317.332031 180.921875 317.035156 181.199219 316.796875 181.507812 C 316.554688 181.808594 316.382812 182.128906 316.285156 182.460938 C 316.179688 182.792969 316.148438 183.128906 316.1875 183.472656 C 316.222656 183.8125 316.339844 184.148438 316.53125 184.488281 C 316.734375 184.839844 316.96875 185.117188 317.226562 185.328125 C 317.492188 185.53125 317.789062 185.671875 318.113281 185.753906 C 318.441406 185.832031 318.8125 185.851562 319.21875 185.808594 C 319.625 185.769531 320.082031 185.683594 320.585938 185.554688 L 321.6875 187.464844 C 321.289062 187.601562 320.886719 187.675781 320.480469 187.6875 C 320.082031 187.699219 319.644531 187.679688 319.167969 187.621094 L 319.019531 189.53125 C 319.59375 189.605469 320.1875 189.597656 320.777344 189.511719 C 321.375 189.425781 321.953125 189.269531 322.507812 189.03125 L 323.210938 190.246094 L 324.460938 189.523438 L 323.777344 188.335938 C 324.140625 188.074219 324.4375 187.785156 324.679688 187.476562 C 324.917969 187.167969 325.085938 186.847656 325.191406 186.515625 C 325.292969 186.183594 325.324219 185.851562 325.292969 185.503906 C 325.261719 185.160156 325.148438 184.820312 324.957031 184.488281 Z M 324.957031 184.484375 " fill-opacity="1" fill-rule="evenodd"/><path fill="#399b53" d="M 153.210938 161.648438 C 152.949219 161.648438 152.886719 161.519531 153.015625 161.324219 L 154.375 159.574219 C 154.503906 159.382812 154.828125 159.253906 155.085938 159.253906 L 178.214844 159.253906 C 178.472656 159.253906 178.539062 159.445312 178.40625 159.640625 L 177.304688 161.324219 C 177.175781 161.519531 176.851562 161.714844 176.660156 161.714844 L 153.207031 161.648438 Z M 143.429688 167.609375 C 143.167969 167.609375 143.105469 167.480469 143.234375 167.285156 L 144.59375 165.535156 C 144.722656 165.339844 145.046875 165.210938 145.304688 165.210938 L 174.84375 165.210938 C 175.105469 165.210938 175.234375 165.40625 175.167969 165.601562 L 174.652344 167.15625 C 174.585938 167.414062 174.328125 167.542969 174.066406 167.542969 Z M 159.105469 173.566406 C 158.84375 173.566406 158.78125 173.375 158.910156 173.179688 L 159.816406 171.558594 C 159.945312 171.367188 160.207031 171.171875 160.464844 171.171875 L 173.421875 171.171875 C 173.679688 171.171875 173.808594 171.367188 173.808594 171.625 L 173.679688 173.179688 C 173.679688 173.4375 173.417969 173.632812 173.226562 173.632812 Z M 226.347656 160.484375 L 215.464844 163.332031 C 214.492188 163.59375 214.429688 163.65625 213.585938 162.683594 C 212.613281 161.582031 211.902344 160.867188 210.539062 160.222656 C 206.460938 158.214844 202.507812 158.796875 198.816406 161.195312 C 194.410156 164.046875 192.144531 168.257812 192.207031 173.503906 C 192.273438 178.6875 195.835938 182.960938 200.953125 183.675781 C 205.359375 184.257812 209.050781 182.703125 211.964844 179.398438 C 212.550781 178.6875 213.066406 177.910156 213.714844 177.003906 L 201.210938 177.003906 C 199.851562 177.003906 199.527344 176.160156 199.980469 175.058594 C 200.820312 173.050781 202.375 169.683594 203.285156 167.996094 C 203.476562 167.609375 203.929688 166.960938 204.902344 166.960938 L 228.484375 166.960938 C 228.351562 168.710938 228.351562 170.460938 228.09375 172.207031 C 227.382812 176.871094 225.632812 181.148438 222.78125 184.90625 C 218.117188 191.058594 212.03125 194.882812 204.320312 195.917969 C 197.972656 196.761719 192.078125 195.53125 186.894531 191.644531 C 182.097656 188.015625 179.382812 183.222656 178.667969 177.261719 C 177.828125 170.199219 179.898438 163.851562 184.175781 158.28125 C 188.777344 152.257812 194.863281 148.433594 202.3125 147.074219 C 208.402344 145.972656 214.234375 146.683594 219.480469 150.246094 C 222.914062 152.515625 225.375 155.625 226.996094 159.382812 C 227.386719 159.964844 227.125 160.289062 226.347656 160.484375 Z M 226.347656 160.484375 " fill-opacity="1" fill-rule="nonzero"/><path fill="#399b53" d="M 247.789062 196.304688 C 241.894531 196.175781 236.519531 194.488281 231.984375 190.605469 C 228.160156 187.300781 225.765625 183.089844 224.988281 178.101562 C 223.820312 170.78125 225.828125 164.304688 230.234375 158.539062 C 234.964844 152.320312 240.664062 149.082031 248.375 147.71875 C 254.980469 146.554688 261.199219 147.203125 266.835938 151.023438 C 271.953125 154.523438 275.128906 159.25 275.96875 165.46875 C 277.070312 174.214844 274.546875 181.339844 268.519531 187.429688 C 264.246094 191.769531 258.996094 194.492188 252.972656 195.722656 C 251.222656 196.046875 249.476562 196.109375 247.792969 196.304688 Z M 263.207031 170.136719 C 263.144531 169.292969 263.144531 168.644531 263.011719 167.996094 C 261.847656 161.582031 255.953125 157.957031 249.796875 159.382812 C 243.773438 160.742188 239.886719 164.5625 238.460938 170.652344 C 237.296875 175.707031 239.757812 180.824219 244.421875 182.898438 C 247.984375 184.449219 251.546875 184.257812 254.980469 182.507812 C 260.097656 179.859375 262.882812 175.707031 263.207031 170.136719 Z M 263.207031 170.136719 " fill-opacity="1" fill-rule="nonzero"/><g fill="#000000" fill-opacity="1"><g transform="translate(2.897637, 188.875152)"><g><path d="M 9 -29.921875 L 9 -5.984375 L 19.296875 -5.984375 L 19.296875 0 L 2.171875 0 L 2.171875 -29.921875 Z M 9 -29.921875 "/></g></g></g><g fill="#000000" fill-opacity="1"><g transform="translate(22.658356, 188.875152)"><g><path d="M 2.796875 -28.96875 C 3.546875 -29.71875 4.4375 -30.09375 5.46875 -30.09375 C 6.507812 -30.09375 7.40625 -29.71875 8.15625 -28.96875 C 8.90625 -28.226562 9.28125 -27.335938 9.28125 -26.296875 C 9.28125 -25.253906 8.90625 -24.359375 8.15625 -23.609375 C 7.40625 -22.859375 6.507812 -22.484375 5.46875 -22.484375 C 4.4375 -22.484375 3.546875 -22.859375 2.796875 -23.609375 C 2.046875 -24.359375 1.671875 -25.253906 1.671875 -26.296875 C 1.671875 -27.335938 2.046875 -28.226562 2.796875 -28.96875 Z M 2.171875 -18.609375 L 2.171875 0 L 8.59375 0 L 8.59375 -18.609375 Z M 2.171875 -18.609375 "/></g></g></g><g fill="#000000" fill-opacity="1"><g transform="translate(32.883148, 188.875152)"><g><path d="M 21.328125 -16.28125 C 23.066406 -14.375 23.9375 -12.039062 23.9375 -9.28125 C 23.9375 -6.53125 23.066406 -4.203125 21.328125 -2.296875 C 19.585938 -0.398438 17.375 0.546875 14.6875 0.546875 C 12.21875 0.546875 10.1875 -0.335938 8.59375 -2.109375 L 8.515625 -2.109375 L 8.515625 0 L 2.171875 0 L 2.171875 -31.1875 L 8.59375 -31.1875 L 8.59375 -16.828125 C 10.1875 -18.367188 12.21875 -19.140625 14.6875 -19.140625 C 17.375 -19.140625 19.585938 -18.1875 21.328125 -16.28125 Z M 15.921875 -6.140625 C 16.722656 -6.953125 17.125 -8 17.125 -9.28125 C 17.125 -10.5625 16.703125 -11.613281 15.859375 -12.4375 C 15.023438 -13.257812 13.992188 -13.671875 12.765625 -13.671875 C 11.554688 -13.671875 10.535156 -13.257812 9.703125 -12.4375 C 8.867188 -11.613281 8.453125 -10.5625 8.453125 -9.28125 C 8.453125 -8.019531 8.851562 -6.976562 9.65625 -6.15625 C 10.46875 -5.34375 11.503906 -4.9375 12.765625 -4.9375 C 14.066406 -4.9375 15.117188 -5.335938 15.921875 -6.140625 Z M 15.921875 -6.140625 "/></g></g></g><g fill="#000000" fill-opacity="1"><g transform="translate(56.92235, 188.875152)"><g><path d="M 2.171875 0 L 2.171875 -18.609375 L 8.59375 -18.609375 L 8.59375 -15.921875 L 8.671875 -15.921875 C 8.710938 -16.015625 8.785156 -16.132812 8.890625 -16.28125 C 9.003906 -16.425781 9.242188 -16.679688 9.609375 -17.046875 C 9.972656 -17.410156 10.359375 -17.734375 10.765625 -18.015625 C 11.179688 -18.304688 11.710938 -18.566406 12.359375 -18.796875 C 13.015625 -19.023438 13.679688 -19.140625 14.359375 -19.140625 C 15.054688 -19.140625 15.742188 -19.039062 16.421875 -18.84375 C 17.097656 -18.65625 17.597656 -18.46875 17.921875 -18.28125 L 18.421875 -17.984375 L 15.734375 -12.546875 C 14.941406 -13.222656 13.832031 -13.5625 12.40625 -13.5625 C 11.632812 -13.5625 10.96875 -13.390625 10.40625 -13.046875 C 9.851562 -12.710938 9.460938 -12.300781 9.234375 -11.8125 C 9.003906 -11.332031 8.835938 -10.921875 8.734375 -10.578125 C 8.640625 -10.242188 8.59375 -9.984375 8.59375 -9.796875 L 8.59375 0 Z M 2.171875 0 "/></g></g></g><g fill="#000000" fill-opacity="1"><g transform="translate(74.253768, 188.875152)"><g><path d="M 3.4375 -2.296875 C 1.695312 -4.203125 0.828125 -6.53125 0.828125 -9.28125 C 0.828125 -12.039062 1.695312 -14.375 3.4375 -16.28125 C 5.1875 -18.1875 7.398438 -19.140625 10.078125 -19.140625 C 12.546875 -19.140625 14.578125 -18.367188 16.171875 -16.828125 L 16.171875 -18.609375 L 22.59375 -18.609375 L 22.59375 0 L 16.25 0 L 16.25 -2.109375 L 16.171875 -2.109375 C 14.578125 -0.335938 12.546875 0.546875 10.078125 0.546875 C 7.398438 0.546875 5.1875 -0.398438 3.4375 -2.296875 Z M 8.90625 -12.4375 C 8.070312 -11.613281 7.65625 -10.5625 7.65625 -9.28125 C 7.65625 -8 8.050781 -6.953125 8.84375 -6.140625 C 9.644531 -5.335938 10.695312 -4.9375 12 -4.9375 C 13.257812 -4.9375 14.289062 -5.34375 15.09375 -6.15625 C 15.90625 -6.976562 16.3125 -8.019531 16.3125 -9.28125 C 16.3125 -10.5625 15.894531 -11.613281 15.0625 -12.4375 C 14.226562 -13.257812 13.207031 -13.671875 12 -13.671875 C 10.769531 -13.671875 9.738281 -13.257812 8.90625 -12.4375 Z M 8.90625 -12.4375 "/></g></g></g><g fill="#000000" fill-opacity="1"><g transform="translate(98.292973, 188.875152)"><g><path d="M 2.171875 0 L 2.171875 -18.609375 L 8.59375 -18.609375 L 8.59375 -16.640625 L 8.671875 -16.640625 C 10.335938 -18.304688 12.113281 -19.140625 14 -19.140625 C 14.914062 -19.140625 15.828125 -19.019531 16.734375 -18.78125 C 17.640625 -18.539062 18.507812 -18.164062 19.34375 -17.65625 C 20.175781 -17.15625 20.851562 -16.4375 21.375 -15.5 C 21.894531 -14.570312 22.15625 -13.488281 22.15625 -12.25 L 22.15625 0 L 15.734375 0 L 15.734375 -10.515625 C 15.734375 -11.484375 15.425781 -12.328125 14.8125 -13.046875 C 14.195312 -13.773438 13.394531 -14.140625 12.40625 -14.140625 C 11.4375 -14.140625 10.554688 -13.765625 9.765625 -13.015625 C 8.984375 -12.265625 8.59375 -11.429688 8.59375 -10.515625 L 8.59375 0 Z M 2.171875 0 "/></g></g></g><g fill="#000000" fill-opacity="1"><g transform="translate(121.53449, 188.875152)"><g><path d="M 20.15625 -18.609375 L 10.953125 -4.890625 L 19.4375 -4.890625 L 19.4375 0 L 0.1875 0 L 9.390625 -13.703125 L 1.703125 -13.703125 L 1.703125 -18.609375 Z M 20.15625 -18.609375 "/></g></g></g><g fill="#000000" fill-opacity="1"><g transform="translate(141.150179, 188.875152)"><g><path d="M 3.4375 -2.296875 C 1.695312 -4.203125 0.828125 -6.53125 0.828125 -9.28125 C 0.828125 -12.039062 1.695312 -14.375 3.4375 -16.28125 C 5.1875 -18.1875 7.398438 -19.140625 10.078125 -19.140625 C 12.546875 -19.140625 14.578125 -18.367188 16.171875 -16.828125 L 16.171875 -18.609375 L 22.59375 -18.609375 L 22.59375 0 L 16.25 0 L 16.25 -2.109375 L 16.171875 -2.109375 C 14.578125 -0.335938 12.546875 0.546875 10.078125 0.546875 C 7.398438 0.546875 5.1875 -0.398438 3.4375 -2.296875 Z M 8.90625 -12.4375 C 8.070312 -11.613281 7.65625 -10.5625 7.65625 -9.28125 C 7.65625 -8 8.050781 -6.953125 8.84375 -6.140625 C 9.644531 -5.335938 10.695312 -4.9375 12 -4.9375 C 13.257812 -4.9375 14.289062 -5.34375 15.09375 -6.15625 C 15.90625 -6.976562 16.3125 -8.019531 16.3125 -9.28125 C 16.3125 -10.5625 15.894531 -11.613281 15.0625 -12.4375 C 14.226562 -13.257812 13.207031 -13.671875 12 -13.671875 C 10.769531 -13.671875 9.738281 -13.257812 8.90625 -12.4375 Z M 8.90625 -12.4375 "/></g></g></g><g fill="#000000" fill-opacity="1"><g transform="translate(165.191612, 188.875152)"><g/></g></g><g fill="#000000" fill-opacity="1"><g transform="translate(174.364911, 188.875152)"><g/></g></g><g fill="#000000" fill-opacity="1"><g transform="translate(183.53821, 188.875152)"><g/></g></g><g fill="#399b53" fill-opacity="1"><g transform="translate(24.292227, 207.476877)"><g><path d="M 5.1875 -6.15625 L 5.1875 -2.1875 C 5.1875 -1.425781 4.976562 -0.851562 4.5625 -0.46875 C 4.15625 -0.0820312 3.554688 0.109375 2.765625 0.109375 C 1.984375 0.109375 1.390625 -0.0820312 0.984375 -0.46875 C 0.578125 -0.851562 0.375 -1.425781 0.375 -2.1875 L 0.375 -6.15625 L 1.78125 -6.15625 L 1.78125 -2.59375 C 1.78125 -2.101562 1.859375 -1.757812 2.015625 -1.5625 C 2.171875 -1.363281 2.425781 -1.265625 2.78125 -1.265625 C 3.132812 -1.265625 3.390625 -1.363281 3.546875 -1.5625 C 3.703125 -1.757812 3.78125 -2.101562 3.78125 -2.59375 L 3.78125 -6.15625 Z M 5.1875 -6.15625 "/></g></g></g><g fill="#399b53" fill-opacity="1"><g transform="translate(34.151548, 207.476877)"><g><path d="M 1.859375 -3.828125 L 1.859375 0 L 0.453125 0 L 0.453125 -6.15625 L 1.859375 -6.15625 L 4.296875 -2.34375 L 4.3125 -2.34375 L 4.3125 -6.15625 L 5.71875 -6.15625 L 5.71875 0 L 4.3125 0 Z M 1.859375 -3.828125 "/></g></g></g><g fill="#399b53" fill-opacity="1"><g transform="translate(44.623651, 207.476877)"><g><path d="M 3.578125 -6.15625 L 6.0625 0 L 4.5625 0 L 4.09375 -1.234375 L 1.75 -1.234375 L 1.296875 0 L -0.203125 0 L 2.28125 -6.15625 Z M 3.625 -2.46875 L 2.9375 -4.25 L 2.921875 -4.25 L 2.234375 -2.46875 Z M 3.625 -2.46875 "/></g></g></g><g fill="#399b53" fill-opacity="1"><g transform="translate(54.781896, 207.476877)"><g/></g></g><g fill="#399b53" fill-opacity="1"><g transform="translate(61.121461, 207.476877)"><g><path d="M 3.96875 -6.15625 L 3.96875 -4.921875 L 1.859375 -4.921875 L 1.859375 -3.703125 L 3.890625 -3.703125 L 3.890625 -2.46875 L 1.859375 -2.46875 L 1.859375 -1.234375 L 3.96875 -1.234375 L 3.96875 0 L 0.453125 0 L 0.453125 -6.15625 Z M 3.96875 -6.15625 "/></g></g></g><g fill="#399b53" fill-opacity="1"><g transform="translate(69.755221, 207.476877)"><g><path d="M 5.546875 0 L 5.25 -3.65625 L 5.21875 -3.65625 L 3.953125 -0.03125 L 3.109375 -0.03125 L 1.859375 -3.65625 L 1.8125 -3.65625 L 1.53125 0 L 0.125 0 L 0.671875 -6.15625 L 2.171875 -6.15625 L 3.53125 -2.609375 L 4.90625 -6.15625 L 6.390625 -6.15625 L 6.953125 0 Z M 5.546875 0 "/></g></g></g><g fill="#399b53" fill-opacity="1"><g transform="translate(81.124074, 207.476877)"><g><path d="M 0.453125 -6.15625 L 2.703125 -6.15625 C 3.328125 -6.15625 3.832031 -5.992188 4.21875 -5.671875 C 4.601562 -5.347656 4.796875 -4.878906 4.796875 -4.265625 C 4.796875 -3.648438 4.597656 -3.164062 4.203125 -2.8125 C 3.816406 -2.457031 3.316406 -2.28125 2.703125 -2.28125 L 1.859375 -2.28125 L 1.859375 0 L 0.453125 0 Z M 1.859375 -3.40625 L 2.25 -3.40625 C 2.5625 -3.40625 2.816406 -3.46875 3.015625 -3.59375 C 3.222656 -3.71875 3.328125 -3.925781 3.328125 -4.21875 C 3.328125 -4.507812 3.222656 -4.71875 3.015625 -4.84375 C 2.816406 -4.976562 2.5625 -5.046875 2.25 -5.046875 L 1.859375 -5.046875 Z M 1.859375 -3.40625 "/></g></g></g><g fill="#399b53" fill-opacity="1"><g transform="translate(90.40051, 207.476877)"><g><path d="M 0.453125 -6.15625 L 2.65625 -6.15625 C 3.25 -6.15625 3.726562 -6 4.09375 -5.6875 C 4.46875 -5.375 4.65625 -4.921875 4.65625 -4.328125 C 4.65625 -3.878906 4.539062 -3.5 4.3125 -3.1875 C 4.09375 -2.882812 3.785156 -2.671875 3.390625 -2.546875 L 5.515625 0 L 3.734375 0 L 1.859375 -2.4375 L 1.859375 0 L 0.453125 0 Z M 1.859375 -3.421875 L 2.015625 -3.421875 C 2.140625 -3.421875 2.25 -3.421875 2.34375 -3.421875 C 2.4375 -3.429688 2.539062 -3.453125 2.65625 -3.484375 C 2.769531 -3.515625 2.859375 -3.554688 2.921875 -3.609375 C 2.992188 -3.671875 3.054688 -3.753906 3.109375 -3.859375 C 3.160156 -3.960938 3.1875 -4.085938 3.1875 -4.234375 C 3.1875 -4.378906 3.160156 -4.503906 3.109375 -4.609375 C 3.054688 -4.710938 2.992188 -4.789062 2.921875 -4.84375 C 2.859375 -4.90625 2.769531 -4.953125 2.65625 -4.984375 C 2.539062 -5.015625 2.4375 -5.03125 2.34375 -5.03125 C 2.25 -5.039062 2.140625 -5.046875 2.015625 -5.046875 L 1.859375 -5.046875 Z M 1.859375 -3.421875 "/></g></g></g><g fill="#399b53" fill-opacity="1"><g transform="translate(100.05059, 207.476877)"><g><path d="M 3.96875 -6.15625 L 3.96875 -4.921875 L 1.859375 -4.921875 L 1.859375 -3.703125 L 3.890625 -3.703125 L 3.890625 -2.46875 L 1.859375 -2.46875 L 1.859375 -1.234375 L 3.96875 -1.234375 L 3.96875 0 L 0.453125 0 L 0.453125 -6.15625 Z M 3.96875 -6.15625 "/></g></g></g><g fill="#399b53" fill-opacity="1"><g transform="translate(108.68435, 207.476877)"><g><path d="M 2.71875 -6.28125 C 3.050781 -6.28125 3.375 -6.226562 3.6875 -6.125 C 4.007812 -6.03125 4.25 -5.9375 4.40625 -5.84375 L 4.625 -5.6875 L 4.0625 -4.578125 C 4.019531 -4.597656 3.957031 -4.628906 3.875 -4.671875 C 3.789062 -4.722656 3.640625 -4.789062 3.421875 -4.875 C 3.203125 -4.957031 3 -5 2.8125 -5 C 2.582031 -5 2.398438 -4.945312 2.265625 -4.84375 C 2.140625 -4.75 2.078125 -4.613281 2.078125 -4.4375 C 2.078125 -4.351562 2.109375 -4.273438 2.171875 -4.203125 C 2.234375 -4.128906 2.335938 -4.050781 2.484375 -3.96875 C 2.628906 -3.894531 2.753906 -3.832031 2.859375 -3.78125 C 2.972656 -3.726562 3.144531 -3.65625 3.375 -3.5625 C 3.769531 -3.382812 4.109375 -3.148438 4.390625 -2.859375 C 4.671875 -2.566406 4.8125 -2.238281 4.8125 -1.875 C 4.8125 -1.519531 4.742188 -1.207031 4.609375 -0.9375 C 4.484375 -0.675781 4.3125 -0.472656 4.09375 -0.328125 C 3.875 -0.179688 3.628906 -0.0703125 3.359375 0 C 3.085938 0.0703125 2.796875 0.109375 2.484375 0.109375 C 2.210938 0.109375 1.945312 0.0820312 1.6875 0.03125 C 1.4375 -0.0195312 1.222656 -0.0859375 1.046875 -0.171875 C 0.867188 -0.253906 0.707031 -0.332031 0.5625 -0.40625 C 0.425781 -0.488281 0.328125 -0.5625 0.265625 -0.625 L 0.171875 -0.703125 L 0.875 -1.875 C 0.9375 -1.832031 1.019531 -1.769531 1.125 -1.6875 C 1.226562 -1.613281 1.410156 -1.507812 1.671875 -1.375 C 1.941406 -1.25 2.175781 -1.1875 2.375 -1.1875 C 2.96875 -1.1875 3.265625 -1.390625 3.265625 -1.796875 C 3.265625 -1.878906 3.242188 -1.957031 3.203125 -2.03125 C 3.160156 -2.101562 3.085938 -2.175781 2.984375 -2.25 C 2.878906 -2.320312 2.785156 -2.378906 2.703125 -2.421875 C 2.617188 -2.460938 2.484375 -2.523438 2.296875 -2.609375 C 2.109375 -2.691406 1.96875 -2.757812 1.875 -2.8125 C 1.507812 -2.988281 1.222656 -3.210938 1.015625 -3.484375 C 0.804688 -3.765625 0.703125 -4.066406 0.703125 -4.390625 C 0.703125 -4.941406 0.90625 -5.394531 1.3125 -5.75 C 1.726562 -6.101562 2.195312 -6.28125 2.71875 -6.28125 Z M 2.71875 -6.28125 "/></g></g></g><g fill="#399b53" fill-opacity="1"><g transform="translate(118.005623, 207.476877)"><g><path d="M 3.578125 -6.15625 L 6.0625 0 L 4.5625 0 L 4.09375 -1.234375 L 1.75 -1.234375 L 1.296875 0 L -0.203125 0 L 2.28125 -6.15625 Z M 3.625 -2.46875 L 2.9375 -4.25 L 2.921875 -4.25 L 2.234375 -2.46875 Z M 3.625 -2.46875 "/></g></g></g><g fill="#399b53" fill-opacity="1"><g transform="translate(128.163864, 207.476877)"><g/></g></g><g fill="#399b53" fill-opacity="1"><g transform="translate(134.503429, 207.476877)"><g><path d="M 0.453125 -6.15625 L 2.234375 -6.15625 C 3.085938 -6.15625 3.816406 -5.863281 4.421875 -5.28125 C 5.035156 -4.695312 5.34375 -3.960938 5.34375 -3.078125 C 5.34375 -2.191406 5.039062 -1.457031 4.4375 -0.875 C 3.832031 -0.289062 3.097656 0 2.234375 0 L 0.453125 0 Z M 1.859375 -1.25 L 2.0625 -1.25 C 2.582031 -1.25 3.003906 -1.421875 3.328125 -1.765625 C 3.648438 -2.117188 3.816406 -2.554688 3.828125 -3.078125 C 3.828125 -3.597656 3.660156 -4.03125 3.328125 -4.375 C 3.003906 -4.726562 2.582031 -4.90625 2.0625 -4.90625 L 1.859375 -4.90625 Z M 1.859375 -1.25 "/></g></g></g><g fill="#399b53" fill-opacity="1"><g transform="translate(144.31791, 207.476877)"><g><path d="M 3.96875 -6.15625 L 3.96875 -4.921875 L 1.859375 -4.921875 L 1.859375 -3.703125 L 3.890625 -3.703125 L 3.890625 -2.46875 L 1.859375 -2.46875 L 1.859375 -1.234375 L 3.96875 -1.234375 L 3.96875 0 L 0.453125 0 L 0.453125 -6.15625 Z M 3.96875 -6.15625 "/></g></g></g><g fill="#399b53" fill-opacity="1"><g transform="translate(152.951677, 207.476877)"><g/></g></g><g fill="#399b53" fill-opacity="1"><g transform="translate(159.291242, 207.476877)"><g><path d="M 3.578125 -6.15625 L 6.0625 0 L 4.5625 0 L 4.09375 -1.234375 L 1.75 -1.234375 L 1.296875 0 L -0.203125 0 L 2.28125 -6.15625 Z M 3.625 -2.46875 L 2.9375 -4.25 L 2.921875 -4.25 L 2.234375 -2.46875 Z M 3.625 -2.46875 "/></g></g></g><g fill="#399b53" fill-opacity="1"><g transform="translate(169.449483, 207.476877)"><g><path d="M 2.71875 -6.28125 C 3.050781 -6.28125 3.375 -6.226562 3.6875 -6.125 C 4.007812 -6.03125 4.25 -5.9375 4.40625 -5.84375 L 4.625 -5.6875 L 4.0625 -4.578125 C 4.019531 -4.597656 3.957031 -4.628906 3.875 -4.671875 C 3.789062 -4.722656 3.640625 -4.789062 3.421875 -4.875 C 3.203125 -4.957031 3 -5 2.8125 -5 C 2.582031 -5 2.398438 -4.945312 2.265625 -4.84375 C 2.140625 -4.75 2.078125 -4.613281 2.078125 -4.4375 C 2.078125 -4.351562 2.109375 -4.273438 2.171875 -4.203125 C 2.234375 -4.128906 2.335938 -4.050781 2.484375 -3.96875 C 2.628906 -3.894531 2.753906 -3.832031 2.859375 -3.78125 C 2.972656 -3.726562 3.144531 -3.65625 3.375 -3.5625 C 3.769531 -3.382812 4.109375 -3.148438 4.390625 -2.859375 C 4.671875 -2.566406 4.8125 -2.238281 4.8125 -1.875 C 4.8125 -1.519531 4.742188 -1.207031 4.609375 -0.9375 C 4.484375 -0.675781 4.3125 -0.472656 4.09375 -0.328125 C 3.875 -0.179688 3.628906 -0.0703125 3.359375 0 C 3.085938 0.0703125 2.796875 0.109375 2.484375 0.109375 C 2.210938 0.109375 1.945312 0.0820312 1.6875 0.03125 C 1.4375 -0.0195312 1.222656 -0.0859375 1.046875 -0.171875 C 0.867188 -0.253906 0.707031 -0.332031 0.5625 -0.40625 C 0.425781 -0.488281 0.328125 -0.5625 0.265625 -0.625 L 0.171875 -0.703125 L 0.875 -1.875 C 0.9375 -1.832031 1.019531 -1.769531 1.125 -1.6875 C 1.226562 -1.613281 1.410156 -1.507812 1.671875 -1.375 C 1.941406 -1.25 2.175781 -1.1875 2.375 -1.1875 C 2.96875 -1.1875 3.265625 -1.390625 3.265625 -1.796875 C 3.265625 -1.878906 3.242188 -1.957031 3.203125 -2.03125 C 3.160156 -2.101562 3.085938 -2.175781 2.984375 -2.25 C 2.878906 -2.320312 2.785156 -2.378906 2.703125 -2.421875 C 2.617188 -2.460938 2.484375 -2.523438 2.296875 -2.609375 C 2.109375 -2.691406 1.96875 -2.757812 1.875 -2.8125 C 1.507812 -2.988281 1.222656 -3.210938 1.015625 -3.484375 C 0.804688 -3.765625 0.703125 -4.066406 0.703125 -4.390625 C 0.703125 -4.941406 0.90625 -5.394531 1.3125 -5.75 C 1.726562 -6.101562 2.195312 -6.28125 2.71875 -6.28125 Z M 2.71875 -6.28125 "/></g></g></g><g fill="#399b53" fill-opacity="1"><g transform="translate(178.770756, 207.476877)"><g><path d="M 3.96875 -6.15625 L 3.96875 -4.921875 L 1.859375 -4.921875 L 1.859375 -3.703125 L 3.890625 -3.703125 L 3.890625 -2.46875 L 1.859375 -2.46875 L 1.859375 -1.234375 L 3.96875 -1.234375 L 3.96875 0 L 0.453125 0 L 0.453125 -6.15625 Z M 3.96875 -6.15625 "/></g></g></g><g fill="#399b53" fill-opacity="1"><g transform="translate(187.404523, 207.476877)"><g><path d="M 2.71875 -6.28125 C 3.050781 -6.28125 3.375 -6.226562 3.6875 -6.125 C 4.007812 -6.03125 4.25 -5.9375 4.40625 -5.84375 L 4.625 -5.6875 L 4.0625 -4.578125 C 4.019531 -4.597656 3.957031 -4.628906 3.875 -4.671875 C 3.789062 -4.722656 3.640625 -4.789062 3.421875 -4.875 C 3.203125 -4.957031 3 -5 2.8125 -5 C 2.582031 -5 2.398438 -4.945312 2.265625 -4.84375 C 2.140625 -4.75 2.078125 -4.613281 2.078125 -4.4375 C 2.078125 -4.351562 2.109375 -4.273438 2.171875 -4.203125 C 2.234375 -4.128906 2.335938 -4.050781 2.484375 -3.96875 C 2.628906 -3.894531 2.753906 -3.832031 2.859375 -3.78125 C 2.972656 -3.726562 3.144531 -3.65625 3.375 -3.5625 C 3.769531 -3.382812 4.109375 -3.148438 4.390625 -2.859375 C 4.671875 -2.566406 4.8125 -2.238281 4.8125 -1.875 C 4.8125 -1.519531 4.742188 -1.207031 4.609375 -0.9375 C 4.484375 -0.675781 4.3125 -0.472656 4.09375 -0.328125 C 3.875 -0.179688 3.628906 -0.0703125 3.359375 0 C 3.085938 0.0703125 2.796875 0.109375 2.484375 0.109375 C 2.210938 0.109375 1.945312 0.0820312 1.6875 0.03125 C 1.4375 -0.0195312 1.222656 -0.0859375 1.046875 -0.171875 C 0.867188 -0.253906 0.707031 -0.332031 0.5625 -0.40625 C 0.425781 -0.488281 0.328125 -0.5625 0.265625 -0.625 L 0.171875 -0.703125 L 0.875 -1.875 C 0.9375 -1.832031 1.019531 -1.769531 1.125 -1.6875 C 1.226562 -1.613281 1.410156 -1.507812 1.671875 -1.375 C 1.941406 -1.25 2.175781 -1.1875 2.375 -1.1875 C 2.96875 -1.1875 3.265625 -1.390625 3.265625 -1.796875 C 3.265625 -1.878906 3.242188 -1.957031 3.203125 -2.03125 C 3.160156 -2.101562 3.085938 -2.175781 2.984375 -2.25 C 2.878906 -2.320312 2.785156 -2.378906 2.703125 -2.421875 C 2.617188 -2.460938 2.484375 -2.523438 2.296875 -2.609375 C 2.109375 -2.691406 1.96875 -2.757812 1.875 -2.8125 C 1.507812 -2.988281 1.222656 -3.210938 1.015625 -3.484375 C 0.804688 -3.765625 0.703125 -4.066406 0.703125 -4.390625 C 0.703125 -4.941406 0.90625 -5.394531 1.3125 -5.75 C 1.726562 -6.101562 2.195312 -6.28125 2.71875 -6.28125 Z M 2.71875 -6.28125 "/></g></g></g><g fill="#399b53" fill-opacity="1"><g transform="translate(196.725797, 207.476877)"><g><path d="M 0.171875 -3.078125 C 0.171875 -3.972656 0.472656 -4.726562 1.078125 -5.34375 C 1.691406 -5.96875 2.425781 -6.28125 3.28125 -6.28125 C 4.144531 -6.28125 4.875 -5.96875 5.46875 -5.34375 C 6.070312 -4.726562 6.375 -3.972656 6.375 -3.078125 C 6.375 -2.179688 6.078125 -1.425781 5.484375 -0.8125 C 4.890625 -0.195312 4.15625 0.109375 3.28125 0.109375 C 2.375 0.109375 1.628906 -0.191406 1.046875 -0.796875 C 0.460938 -1.410156 0.171875 -2.171875 0.171875 -3.078125 Z M 1.6875 -3.078125 C 1.6875 -2.753906 1.734375 -2.457031 1.828125 -2.1875 C 1.929688 -1.925781 2.109375 -1.703125 2.359375 -1.515625 C 2.609375 -1.335938 2.914062 -1.25 3.28125 -1.25 C 3.800781 -1.25 4.191406 -1.425781 4.453125 -1.78125 C 4.722656 -2.144531 4.859375 -2.578125 4.859375 -3.078125 C 4.859375 -3.585938 4.722656 -4.019531 4.453125 -4.375 C 4.179688 -4.738281 3.789062 -4.921875 3.28125 -4.921875 C 2.769531 -4.921875 2.375 -4.738281 2.09375 -4.375 C 1.820312 -4.019531 1.6875 -3.585938 1.6875 -3.078125 Z M 1.6875 -3.078125 "/></g></g></g><g fill="#399b53" fill-opacity="1"><g transform="translate(207.579028, 207.476877)"><g><path d="M 0.453125 -6.15625 L 2.65625 -6.15625 C 3.25 -6.15625 3.726562 -6 4.09375 -5.6875 C 4.46875 -5.375 4.65625 -4.921875 4.65625 -4.328125 C 4.65625 -3.878906 4.539062 -3.5 4.3125 -3.1875 C 4.09375 -2.882812 3.785156 -2.671875 3.390625 -2.546875 L 5.515625 0 L 3.734375 0 L 1.859375 -2.4375 L 1.859375 0 L 0.453125 0 Z M 1.859375 -3.421875 L 2.015625 -3.421875 C 2.140625 -3.421875 2.25 -3.421875 2.34375 -3.421875 C 2.4375 -3.429688 2.539062 -3.453125 2.65625 -3.484375 C 2.769531 -3.515625 2.859375 -3.554688 2.921875 -3.609375 C 2.992188 -3.671875 3.054688 -3.753906 3.109375 -3.859375 C 3.160156 -3.960938 3.1875 -4.085938 3.1875 -4.234375 C 3.1875 -4.378906 3.160156 -4.503906 3.109375 -4.609375 C 3.054688 -4.710938 2.992188 -4.789062 2.921875 -4.84375 C 2.859375 -4.90625 2.769531 -4.953125 2.65625 -4.984375 C 2.539062 -5.015625 2.4375 -5.03125 2.34375 -5.03125 C 2.25 -5.039062 2.140625 -5.046875 2.015625 -5.046875 L 1.859375 -5.046875 Z M 1.859375 -3.421875 "/></g></g></g><g fill="#399b53" fill-opacity="1"><g transform="translate(217.229115, 207.476877)"><g><path d="M 0.421875 -7.296875 L 1.9375 -8.609375 L 2.609375 -7.75 L 0.84375 -6.71875 Z M 1.859375 -6.15625 L 1.859375 0 L 0.453125 0 L 0.453125 -6.15625 Z M 1.859375 -6.15625 "/></g></g></g><g fill="#399b53" fill-opacity="1"><g transform="translate(223.830241, 207.476877)"><g><path d="M 3.578125 -6.15625 L 6.0625 0 L 4.5625 0 L 4.09375 -1.234375 L 1.75 -1.234375 L 1.296875 0 L -0.203125 0 L 2.28125 -6.15625 Z M 3.625 -2.46875 L 2.9375 -4.25 L 2.921875 -4.25 L 2.234375 -2.46875 Z M 3.625 -2.46875 "/></g></g></g><g fill="#399b53" fill-opacity="1"><g transform="translate(233.988482, 207.476877)"><g/></g></g><g fill="#399b53" fill-opacity="1"><g transform="translate(240.328047, 207.476877)"><g><path d="M 3.125 -6.15625 L 3.125 -1.734375 C 3.125 -1.140625 2.957031 -0.679688 2.625 -0.359375 C 2.300781 -0.046875 1.828125 0.109375 1.203125 0.109375 C 1.046875 0.109375 0.882812 0.0859375 0.71875 0.046875 C 0.5625 0.015625 0.425781 -0.0234375 0.3125 -0.078125 C 0.207031 -0.140625 0.109375 -0.203125 0.015625 -0.265625 C -0.0664062 -0.328125 -0.128906 -0.378906 -0.171875 -0.421875 L -0.234375 -0.484375 L 0.21875 -1.65625 C 0.507812 -1.375 0.773438 -1.234375 1.015625 -1.234375 C 1.234375 -1.234375 1.40625 -1.300781 1.53125 -1.4375 C 1.65625 -1.582031 1.71875 -1.800781 1.71875 -2.09375 L 1.71875 -6.15625 Z M 3.125 -6.15625 "/></g></g></g><g fill="#399b53" fill-opacity="1"><g transform="translate(248.132316, 207.476877)"><g><path d="M 1.859375 -6.15625 L 1.859375 -1.234375 L 3.96875 -1.234375 L 3.96875 0 L 0.453125 0 L 0.453125 -6.15625 Z M 1.859375 -6.15625 "/></g></g></g><g fill="#399b53" fill-opacity="1"><g transform="translate(256.653984, 207.476877)"><g><path d="M 0.453125 -6.15625 L 2.359375 -6.15625 C 2.929688 -6.15625 3.390625 -6.03125 3.734375 -5.78125 C 4.078125 -5.539062 4.25 -5.144531 4.25 -4.59375 C 4.25 -3.976562 3.992188 -3.535156 3.484375 -3.265625 C 4.359375 -3.117188 4.796875 -2.601562 4.796875 -1.71875 C 4.796875 -1.195312 4.617188 -0.78125 4.265625 -0.46875 C 3.910156 -0.15625 3.414062 0 2.78125 0 L 0.453125 0 Z M 1.859375 -3.75 L 1.96875 -3.75 C 2.28125 -3.75 2.507812 -3.800781 2.65625 -3.90625 C 2.8125 -4.019531 2.890625 -4.203125 2.890625 -4.453125 C 2.890625 -4.867188 2.582031 -5.078125 1.96875 -5.078125 L 1.859375 -5.078125 Z M 1.859375 -1.078125 L 2.296875 -1.078125 C 2.984375 -1.078125 3.328125 -1.304688 3.328125 -1.765625 C 3.328125 -2.046875 3.238281 -2.242188 3.0625 -2.359375 C 2.894531 -2.484375 2.640625 -2.546875 2.296875 -2.546875 L 1.859375 -2.546875 Z M 1.859375 -1.078125 "/></g></g></g><g fill="#399b53" fill-opacity="1"><g transform="translate(101.475644, 217.79242)"><g><path d="M 0.453125 -6.15625 L 2.359375 -6.15625 C 2.929688 -6.15625 3.390625 -6.03125 3.734375 -5.78125 C 4.078125 -5.539062 4.25 -5.144531 4.25 -4.59375 C 4.25 -3.976562 3.992188 -3.535156 3.484375 -3.265625 C 4.359375 -3.117188 4.796875 -2.601562 4.796875 -1.71875 C 4.796875 -1.195312 4.617188 -0.78125 4.265625 -0.46875 C 3.910156 -0.15625 3.414062 0 2.78125 0 L 0.453125 0 Z M 1.859375 -3.75 L 1.96875 -3.75 C 2.28125 -3.75 2.507812 -3.800781 2.65625 -3.90625 C 2.8125 -4.019531 2.890625 -4.203125 2.890625 -4.453125 C 2.890625 -4.867188 2.582031 -5.078125 1.96875 -5.078125 L 1.859375 -5.078125 Z M 1.859375 -1.078125 L 2.296875 -1.078125 C 2.984375 -1.078125 3.328125 -1.304688 3.328125 -1.765625 C 3.328125 -2.046875 3.238281 -2.242188 3.0625 -2.359375 C 2.894531 -2.484375 2.640625 -2.546875 2.296875 -2.546875 L 1.859375 -2.546875 Z M 1.859375 -1.078125 "/></g></g></g><g fill="#399b53" fill-opacity="1"><g transform="translate(110.752081, 217.79242)"><g><path d="M 3.578125 -6.15625 L 6.0625 0 L 4.5625 0 L 4.09375 -1.234375 L 1.75 -1.234375 L 1.296875 0 L -0.203125 0 L 2.28125 -6.15625 Z M 3.625 -2.46875 L 2.9375 -4.25 L 2.921875 -4.25 L 2.234375 -2.46875 Z M 3.625 -2.46875 "/></g></g></g><g fill="#399b53" fill-opacity="1"><g transform="translate(120.910324, 217.79242)"><g><path d="M 5.546875 0 L 5.25 -3.65625 L 5.21875 -3.65625 L 3.953125 -0.03125 L 3.109375 -0.03125 L 1.859375 -3.65625 L 1.8125 -3.65625 L 1.53125 0 L 0.125 0 L 0.671875 -6.15625 L 2.171875 -6.15625 L 3.53125 -2.609375 L 4.90625 -6.15625 L 6.390625 -6.15625 L 6.953125 0 Z M 5.546875 0 "/></g></g></g><g fill="#399b53" fill-opacity="1"><g transform="translate(132.279181, 217.79242)"><g><path d="M 0.171875 -3.078125 C 0.171875 -3.972656 0.472656 -4.726562 1.078125 -5.34375 C 1.691406 -5.96875 2.425781 -6.28125 3.28125 -6.28125 C 4.144531 -6.28125 4.875 -5.96875 5.46875 -5.34375 C 6.070312 -4.726562 6.375 -3.972656 6.375 -3.078125 C 6.375 -2.179688 6.078125 -1.425781 5.484375 -0.8125 C 4.890625 -0.195312 4.15625 0.109375 3.28125 0.109375 C 2.375 0.109375 1.628906 -0.191406 1.046875 -0.796875 C 0.460938 -1.410156 0.171875 -2.171875 0.171875 -3.078125 Z M 1.6875 -3.078125 C 1.6875 -2.753906 1.734375 -2.457031 1.828125 -2.1875 C 1.929688 -1.925781 2.109375 -1.703125 2.359375 -1.515625 C 2.609375 -1.335938 2.914062 -1.25 3.28125 -1.25 C 3.800781 -1.25 4.191406 -1.425781 4.453125 -1.78125 C 4.722656 -2.144531 4.859375 -2.578125 4.859375 -3.078125 C 4.859375 -3.585938 4.722656 -4.019531 4.453125 -4.375 C 4.179688 -4.738281 3.789062 -4.921875 3.28125 -4.921875 C 2.769531 -4.921875 2.375 -4.738281 2.09375 -4.375 C 1.820312 -4.019531 1.6875 -3.585938 1.6875 -3.078125 Z M 1.6875 -3.078125 "/></g></g></g><g fill="#399b53" fill-opacity="1"><g transform="translate(143.132405, 217.79242)"><g><path d="M 1.859375 -3.828125 L 1.859375 0 L 0.453125 0 L 0.453125 -6.15625 L 1.859375 -6.15625 L 4.296875 -2.34375 L 4.3125 -2.34375 L 4.3125 -6.15625 L 5.71875 -6.15625 L 5.71875 0 L 4.3125 0 Z M 1.859375 -3.828125 "/></g></g></g><g fill="#399b53" fill-opacity="1"><g transform="translate(153.604506, 217.79242)"><g/></g></g><g fill="#399b53" fill-opacity="1"><g transform="translate(159.944072, 217.79242)"><g><path d="M 2.71875 -6.28125 C 3.050781 -6.28125 3.375 -6.226562 3.6875 -6.125 C 4.007812 -6.03125 4.25 -5.9375 4.40625 -5.84375 L 4.625 -5.6875 L 4.0625 -4.578125 C 4.019531 -4.597656 3.957031 -4.628906 3.875 -4.671875 C 3.789062 -4.722656 3.640625 -4.789062 3.421875 -4.875 C 3.203125 -4.957031 3 -5 2.8125 -5 C 2.582031 -5 2.398438 -4.945312 2.265625 -4.84375 C 2.140625 -4.75 2.078125 -4.613281 2.078125 -4.4375 C 2.078125 -4.351562 2.109375 -4.273438 2.171875 -4.203125 C 2.234375 -4.128906 2.335938 -4.050781 2.484375 -3.96875 C 2.628906 -3.894531 2.753906 -3.832031 2.859375 -3.78125 C 2.972656 -3.726562 3.144531 -3.65625 3.375 -3.5625 C 3.769531 -3.382812 4.109375 -3.148438 4.390625 -2.859375 C 4.671875 -2.566406 4.8125 -2.238281 4.8125 -1.875 C 4.8125 -1.519531 4.742188 -1.207031 4.609375 -0.9375 C 4.484375 -0.675781 4.3125 -0.472656 4.09375 -0.328125 C 3.875 -0.179688 3.628906 -0.0703125 3.359375 0 C 3.085938 0.0703125 2.796875 0.109375 2.484375 0.109375 C 2.210938 0.109375 1.945312 0.0820312 1.6875 0.03125 C 1.4375 -0.0195312 1.222656 -0.0859375 1.046875 -0.171875 C 0.867188 -0.253906 0.707031 -0.332031 0.5625 -0.40625 C 0.425781 -0.488281 0.328125 -0.5625 0.265625 -0.625 L 0.171875 -0.703125 L 0.875 -1.875 C 0.9375 -1.832031 1.019531 -1.769531 1.125 -1.6875 C 1.226562 -1.613281 1.410156 -1.507812 1.671875 -1.375 C 1.941406 -1.25 2.175781 -1.1875 2.375 -1.1875 C 2.96875 -1.1875 3.265625 -1.390625 3.265625 -1.796875 C 3.265625 -1.878906 3.242188 -1.957031 3.203125 -2.03125 C 3.160156 -2.101562 3.085938 -2.175781 2.984375 -2.25 C 2.878906 -2.320312 2.785156 -2.378906 2.703125 -2.421875 C 2.617188 -2.460938 2.484375 -2.523438 2.296875 -2.609375 C 2.109375 -2.691406 1.96875 -2.757812 1.875 -2.8125 C 1.507812 -2.988281 1.222656 -3.210938 1.015625 -3.484375 C 0.804688 -3.765625 0.703125 -4.066406 0.703125 -4.390625 C 0.703125 -4.941406 0.90625 -5.394531 1.3125 -5.75 C 1.726562 -6.101562 2.195312 -6.28125 2.71875 -6.28125 Z M 2.71875 -6.28125 "/></g></g></g><g fill="#399b53" fill-opacity="1"><g transform="translate(169.265345, 217.79242)"><g><path d="M 3.578125 -6.15625 L 6.0625 0 L 4.5625 0 L 4.09375 -1.234375 L 1.75 -1.234375 L 1.296875 0 L -0.203125 0 L 2.28125 -6.15625 Z M 3.625 -2.46875 L 2.9375 -4.25 L 2.921875 -4.25 L 2.234375 -2.46875 Z M 3.625 -2.46875 "/></g></g></g><g fill="#399b53" fill-opacity="1"><g transform="translate(179.423586, 217.79242)"><g><path d="M 2.71875 -6.28125 C 3.050781 -6.28125 3.375 -6.226562 3.6875 -6.125 C 4.007812 -6.03125 4.25 -5.9375 4.40625 -5.84375 L 4.625 -5.6875 L 4.0625 -4.578125 C 4.019531 -4.597656 3.957031 -4.628906 3.875 -4.671875 C 3.789062 -4.722656 3.640625 -4.789062 3.421875 -4.875 C 3.203125 -4.957031 3 -5 2.8125 -5 C 2.582031 -5 2.398438 -4.945312 2.265625 -4.84375 C 2.140625 -4.75 2.078125 -4.613281 2.078125 -4.4375 C 2.078125 -4.351562 2.109375 -4.273438 2.171875 -4.203125 C 2.234375 -4.128906 2.335938 -4.050781 2.484375 -3.96875 C 2.628906 -3.894531 2.753906 -3.832031 2.859375 -3.78125 C 2.972656 -3.726562 3.144531 -3.65625 3.375 -3.5625 C 3.769531 -3.382812 4.109375 -3.148438 4.390625 -2.859375 C 4.671875 -2.566406 4.8125 -2.238281 4.8125 -1.875 C 4.8125 -1.519531 4.742188 -1.207031 4.609375 -0.9375 C 4.484375 -0.675781 4.3125 -0.472656 4.09375 -0.328125 C 3.875 -0.179688 3.628906 -0.0703125 3.359375 0 C 3.085938 0.0703125 2.796875 0.109375 2.484375 0.109375 C 2.210938 0.109375 1.945312 0.0820312 1.6875 0.03125 C 1.4375 -0.0195312 1.222656 -0.0859375 1.046875 -0.171875 C 0.867188 -0.253906 0.707031 -0.332031 0.5625 -0.40625 C 0.425781 -0.488281 0.328125 -0.5625 0.265625 -0.625 L 0.171875 -0.703125 L 0.875 -1.875 C 0.9375 -1.832031 1.019531 -1.769531 1.125 -1.6875 C 1.226562 -1.613281 1.410156 -1.507812 1.671875 -1.375 C 1.941406 -1.25 2.175781 -1.1875 2.375 -1.1875 C 2.96875 -1.1875 3.265625 -1.390625 3.265625 -1.796875 C 3.265625 -1.878906 3.242188 -1.957031 3.203125 -2.03125 C 3.160156 -2.101562 3.085938 -2.175781 2.984375 -2.25 C 2.878906 -2.320312 2.785156 -2.378906 2.703125 -2.421875 C 2.617188 -2.460938 2.484375 -2.523438 2.296875 -2.609375 C 2.109375 -2.691406 1.96875 -2.757812 1.875 -2.8125 C 1.507812 -2.988281 1.222656 -3.210938 1.015625 -3.484375 C 0.804688 -3.765625 0.703125 -4.066406 0.703125 -4.390625 C 0.703125 -4.941406 0.90625 -5.394531 1.3125 -5.75 C 1.726562 -6.101562 2.195312 -6.28125 2.71875 -6.28125 Z M 2.71875 -6.28125 "/></g></g></g></svg>